<svg width="24" height="24" viewBox="0 0 24 24" fill="none" xmlns="http://www.w3.org/2000/svg">
<g clip-path="url(#clip0_753_10167)">
<path d="M12 24C18.6274 24 24 18.6274 24 12C24 5.37258 18.6274 0 12 0C5.37258 0 0 5.37258 0 12C0 18.6274 5.37258 24 12 24Z" fill="#25B47E"/>
<path d="M8.47852 14.7563V13.1683L5.26758 12.0961L4.86915 11.9555L5.26758 11.809L8.47852 10.7191V9.13711L3.29297 11.2875V12.6059L8.47852 14.7563ZM11.1926 16.3325L14.386 7.06874H12.8683L9.675 16.3325H11.1926ZM15.3364 14.7622L20.6098 12.6118V11.2816L15.3364 9.13711V10.7133L18.6996 11.8207L19.0512 11.9379L18.6937 12.0551L15.3364 13.1801V14.7622Z" fill="white"/>
</g>
<defs>
<clipPath id="clip0_753_10167">
<rect width="24" height="24" fill="white"/>
</clipPath>
</defs>
</svg>
