<svg width="32" height="33" viewBox="0 0 32 33" fill="none" xmlns="http://www.w3.org/2000/svg">
<path d="M24.5 0.177734H7.5C3.35786 0.177734 0 3.5356 0 7.67773V24.6777C0 28.8199 3.35786 32.1777 7.5 32.1777H24.5C28.6421 32.1777 32 28.8199 32 24.6777V7.67773C32 3.5356 28.6421 0.177734 24.5 0.177734Z" fill="#5865F2"/>
<mask id="mask0_746_1682" style="mask-type:luminance" maskUnits="userSpaceOnUse" x="3" y="6" width="26" height="20">
<path d="M3.5 6.55273H28.5V25.919H3.5V6.55273Z" fill="white"/>
</mask>
<g mask="url(#mask0_746_1682)">
<path d="M24.6634 8.27742C23.0426 7.5334 21.3321 7.00284 19.5748 6.69904C19.5588 6.69609 19.5423 6.69824 19.5277 6.7052C19.513 6.71216 19.5009 6.72356 19.493 6.73779C19.2733 7.12854 19.0298 7.63854 18.8594 8.03929C16.9378 7.75154 15.0262 7.75154 13.144 8.03929C12.9735 7.62954 12.7213 7.12854 12.5005 6.73779C12.4924 6.72385 12.4802 6.7127 12.4656 6.70579C12.451 6.69887 12.4346 6.69652 12.4187 6.69904C10.6612 7.00223 8.95062 7.53281 7.33005 8.27742C7.31618 8.28331 7.30447 8.29335 7.29655 8.30617C4.05555 13.1482 3.1678 17.8712 3.6033 22.5357C3.60451 22.5471 3.60801 22.5582 3.6136 22.5682C3.61918 22.5783 3.62673 22.5871 3.6358 22.5942C5.77405 24.1645 7.84542 25.1179 9.8783 25.7498C9.89411 25.7545 9.91099 25.7543 9.92667 25.7491C9.94235 25.744 9.95609 25.7342 9.96605 25.721C10.4469 25.0643 10.8755 24.3719 11.2432 23.6438C11.2482 23.6338 11.2511 23.6229 11.2517 23.6117C11.2522 23.6005 11.2503 23.5894 11.2462 23.579C11.2421 23.5686 11.2359 23.5592 11.2279 23.5513C11.2199 23.5435 11.2103 23.5375 11.1998 23.5337C10.5198 23.2757 9.87242 22.9613 9.24967 22.6042C9.23833 22.5975 9.22881 22.5881 9.22194 22.5769C9.21507 22.5657 9.21107 22.5529 9.2103 22.5398C9.20952 22.5266 9.21198 22.5135 9.21748 22.5015C9.22297 22.4896 9.23132 22.4791 9.2418 22.4712C9.37317 22.373 9.50229 22.2718 9.62905 22.1677C9.64014 22.1585 9.65359 22.1526 9.66785 22.1507C9.68212 22.1487 9.69665 22.1508 9.7098 22.1567C13.8013 24.0247 18.2307 24.0247 22.2738 22.1567C22.287 22.1504 22.3017 22.148 22.3162 22.1498C22.3307 22.1516 22.3444 22.1574 22.3557 22.1667C22.4826 22.2714 22.612 22.3729 22.7439 22.4712C22.7544 22.4791 22.7629 22.4894 22.7684 22.5013C22.774 22.5133 22.7766 22.5264 22.7759 22.5395C22.7752 22.5526 22.7713 22.5654 22.7645 22.5767C22.7578 22.588 22.7483 22.5974 22.737 22.6042C22.1139 22.968 21.4613 23.2786 20.7859 23.5327C20.7754 23.5367 20.7659 23.5429 20.758 23.5508C20.75 23.5587 20.7439 23.5683 20.7399 23.5788C20.7359 23.5892 20.7341 23.6005 20.7348 23.6117C20.7354 23.6229 20.7384 23.6338 20.7435 23.6438C21.1175 24.3661 21.544 25.0601 22.0195 25.72C22.0292 25.7336 22.0429 25.7437 22.0586 25.749C22.0744 25.7544 22.0914 25.7546 22.1073 25.7498C24.15 25.1179 26.2214 24.1645 28.3598 22.5942C28.369 22.5874 28.3766 22.5788 28.3822 22.5689C28.3878 22.559 28.3912 22.548 28.3923 22.5367C28.9135 17.144 27.5192 12.4597 24.6959 8.30717C24.689 8.29368 24.6775 8.28312 24.6634 8.27742ZM11.8542 19.6955C10.6223 19.6955 9.6073 18.5647 9.6073 17.1758C9.6073 15.7869 10.6027 14.656 11.8542 14.656C13.1154 14.656 14.1205 15.7969 14.1008 17.1758C14.1008 18.5647 13.1057 19.6955 11.8542 19.6955ZM20.1612 19.6955C18.9293 19.6955 17.9144 18.5647 17.9144 17.1758C17.9144 15.7869 18.9097 14.656 20.1612 14.656C21.4224 14.656 22.4275 15.7969 22.4079 17.1758C22.4079 18.5647 21.4224 19.6955 20.1612 19.6955Z" fill="white"/>
</g>
</svg>
