<svg width="32" height="33" viewBox="0 0 32 33" fill="none" xmlns="http://www.w3.org/2000/svg">
<path d="M31.3217 8.48538C30.9565 7.1136 29.8609 6.01964 28.487 5.65499C26 4.97778 16 4.97778 16 4.97778C16 4.97778 5.98261 4.99515 3.49565 5.67236C2.12174 6.03701 1.02609 7.13096 0.66087 8.50274C4.14641e-08 10.9858 0 16.1778 0 16.1778C0 16.1778 0 21.3697 0.678261 23.8702C1.04348 25.242 2.13913 26.3359 3.51304 26.7006C6 27.3778 16 27.3778 16 27.3778C16 27.3778 26 27.3778 28.487 26.7006C29.8609 26.3359 30.9565 25.242 31.3217 23.8702C32 21.3871 32 16.1778 32 16.1778C32 16.1778 32 10.9858 31.3217 8.48538ZM12.8 20.9703V11.3852L21.113 16.1778L12.8 20.9703Z" fill="#FF0000"/>
</svg>
